<svg xmlns="http://www.w3.org/2000/svg" viewBox="0 0 67.19 63.38"><path d="M72.94,70.63H71.45a7.55,7.55,0,0,0-6.7-7.28V60.2a8.3,8.3,0,0,0,5.79-2.06c2.48-2.4,2.24-6.46,2.24-6.62a.75.75,0,0,0-.75-.75c-.16,0-4.22-.41-6.7,2a6.42,6.42,0,0,0-1.32,2,7.1,7.1,0,0,0-1.25-1.9c-2.39-2.48-6.45-2.23-6.61-2.23a.74.74,0,0,0-.75.74c0,.17-.41,4.22,2,6.7,1.73,1.82,4.38,2.15,5.79,2.24v3.06a7.48,7.48,0,0,0-6.7,7.28H48.37a7.56,7.56,0,0,0-6.7-7.28V60.2c1.32,0,4-.24,5.79-2.06,2.48-2.4,2.23-6.46,2.23-6.62a.74.74,0,0,0-.74-.75c-.17,0-4.22-.41-6.7,2a5.84,5.84,0,0,0-1.57,2.07,7.14,7.14,0,0,0-1.25-1.91C37,50.44,33,50.69,32.82,50.69a.74.74,0,0,0-.75.75c0,.16-.41,4.21,2,6.7,1.73,1.82,4.38,2.15,5.79,2.23v3.06a7.49,7.49,0,0,0-6.7,7.28H25a7.57,7.57,0,0,0-6.7-7.28V60.29c1.32,0,4.05-.25,5.79-2.07,2.48-2.4,2.23-6.45,2.23-6.62a.74.74,0,0,0-.74-.74c-.17,0-4.22-.42-6.7,2a6.37,6.37,0,0,0-1.33,2,6.87,6.87,0,0,0-1.24-1.91C14,50.44,9.9,50.69,9.73,50.69a.74.74,0,0,0-.74.75c0,.16-.41,4.21,2,6.7,1.73,1.82,4.38,2.15,5.79,2.23v3.06a7.48,7.48,0,0,0-6.7,7.28H8.41a.83.83,0,0,0,0,1.66H72.94a.78.78,0,0,0,.83-.83A.91.91,0,0,0,72.94,70.63ZM66.41,54A6.82,6.82,0,0,1,71,52.43,6.86,6.86,0,0,1,69.3,57a6.82,6.82,0,0,1-4.63,1.57A7.44,7.44,0,0,1,66.41,54Zm-7.95,3a6.85,6.85,0,0,1-1.57-4.63,6.87,6.87,0,0,1,4.55,1.73A7,7,0,0,1,63,58.47v.25A7.13,7.13,0,0,1,58.46,57Zm5.38,8a5.91,5.91,0,0,1,5.87,5.63H58A6,6,0,0,1,63.84,65ZM43.24,54a6.82,6.82,0,0,1,4.63-1.57A6.89,6.89,0,0,1,46.14,57a6.59,6.59,0,0,1-4.64,1.65C41.59,57.47,41.83,55.32,43.24,54ZM35.3,57a6.8,6.8,0,0,1-1.57-4.63,6.91,6.91,0,0,1,4.55,1.73,7,7,0,0,1,1.57,4.39v.25A6.94,6.94,0,0,1,35.3,57Zm5.38,8a5.91,5.91,0,0,1,5.87,5.63H34.8A5.91,5.91,0,0,1,40.68,65ZM20,54a6.86,6.86,0,0,1,4.64-1.57A7,7,0,0,1,22.89,57a6.85,6.85,0,0,1-4.63,1.57A7.48,7.48,0,0,1,20,54Zm-7.94,3a6.85,6.85,0,0,1-1.57-4.63A6.87,6.87,0,0,1,15,54.08a7,7,0,0,1,1.57,4.39v.25C15.53,58.63,13.37,58.38,12.05,57Zm5.38,8a5.91,5.91,0,0,1,5.87,5.63H11.55A6,6,0,0,1,17.43,65Z" transform="translate(-7.08 -9.49)" style="fill:none;stroke:#eef7f2;stroke-miterlimit:10"/><path d="M47.21,25.46a6.95,6.95,0,1,0-7,6.95A7,7,0,0,0,47.21,25.46Zm-7,5.29a5.3,5.3,0,1,1,5.3-5.29A5.23,5.23,0,0,1,40.26,30.75Z" transform="translate(-7.08 -9.49)" style="fill:none;stroke:#eef7f2;stroke-miterlimit:10"/><path d="M41.09,14.62V10.81a.83.83,0,0,0-1.66,0v3.81a.79.79,0,0,0,.83.83A.83.83,0,0,0,41.09,14.62Z" transform="translate(-7.08 -9.49)" style="fill:none;stroke:#eef7f2;stroke-miterlimit:10"/><path d="M45.64,16.85a1,1,0,0,0,.74-.41l1.91-3.31a.85.85,0,0,0-1.49-.83l-1.91,3.31a.84.84,0,0,0,.34,1.16A.91.91,0,0,0,45.64,16.85Z" transform="translate(-7.08 -9.49)" style="fill:none;stroke:#eef7f2;stroke-miterlimit:10"/><path d="M50,20.66l3.23-1.9a.92.92,0,0,0,.33-1.16.9.9,0,0,0-1.16-.33l-3.22,1.9a.9.9,0,0,0-.33,1.16.85.85,0,0,0,.74.41A.62.62,0,0,0,50,20.66Z" transform="translate(-7.08 -9.49)" style="fill:none;stroke:#eef7f2;stroke-miterlimit:10"/><path d="M55.73,25.21a.89.89,0,0,0-.82-.83h0l-3.81.08a.83.83,0,0,0-.83.83.89.89,0,0,0,.83.83h0L54.91,26A.78.78,0,0,0,55.73,25.21Z" transform="translate(-7.08 -9.49)" style="fill:none;stroke:#eef7f2;stroke-miterlimit:10"/><path d="M49.45,31.41l3.3,1.82a.71.71,0,0,0,.42.09.86.86,0,0,0,.74-.42.82.82,0,0,0-.33-1.15l-3.31-1.82a.85.85,0,1,0-.82,1.48Z" transform="translate(-7.08 -9.49)" style="fill:none;stroke:#eef7f2;stroke-miterlimit:10"/><path d="M47.21,38.36a.89.89,0,0,0,.75.42c.16,0,.33,0,.41-.09a.81.81,0,0,0,.25-1.15l-2-3.23a.83.83,0,1,0-1.4.91Z" transform="translate(-7.08 -9.49)" style="fill:none;stroke:#eef7f2;stroke-miterlimit:10"/><path d="M40.68,35.47h0a.83.83,0,0,0-.83.83L40,40.1a.9.9,0,0,0,.83.83h0a.83.83,0,0,0,.83-.83l-.17-3.8A1,1,0,0,0,40.68,35.47Z" transform="translate(-7.08 -9.49)" style="fill:none;stroke:#eef7f2;stroke-miterlimit:10"/><path d="M33.06,39.19a.66.66,0,0,0,.42.08.85.85,0,0,0,.74-.41L36,35.55a.85.85,0,1,0-1.49-.83L32.73,38A.85.85,0,0,0,33.06,39.19Z" transform="translate(-7.08 -9.49)" style="fill:none;stroke:#eef7f2;stroke-miterlimit:10"/><path d="M27.93,34.14a.65.65,0,0,0,.42-.16l3.14-2.07a.81.81,0,0,0,.25-1.16.82.82,0,0,0-1.16-.25l-3.14,2.07a.81.81,0,0,0-.25,1.16A.88.88,0,0,0,27.93,34.14Z" transform="translate(-7.08 -9.49)" style="fill:none;stroke:#eef7f2;stroke-miterlimit:10"/><path d="M24.79,26.2a.88.88,0,0,0,.83.83h.08l3.81-.17a.79.79,0,0,0-.09-1.57l-3.8.17A.72.72,0,0,0,24.79,26.2Z" transform="translate(-7.08 -9.49)" style="fill:none;stroke:#eef7f2;stroke-miterlimit:10"/><path d="M30.25,21.32a.65.65,0,0,0,.42.08.86.86,0,0,0,.74-.41.8.8,0,0,0-.33-1.08l-3.39-1.73a.79.79,0,1,0-.75,1.4Z" transform="translate(-7.08 -9.49)" style="fill:none;stroke:#eef7f2;stroke-miterlimit:10"/><path d="M34.31,17.27a1.2,1.2,0,0,0,.49-.17.81.81,0,0,0,.25-1.16L33,12.8a.83.83,0,1,0-1.4.91l2.06,3.14A.76.76,0,0,0,34.31,17.27Z" transform="translate(-7.08 -9.49)" style="fill:none;stroke:#eef7f2;stroke-miterlimit:10"/></svg>