<svg xmlns="http://www.w3.org/2000/svg" viewBox="0 0 66.59 61.63"><path d="M42.62,28.65a8.64,8.64,0,1,0,8.64,8.64A8.64,8.64,0,0,0,42.62,28.65Zm0,15.83a7.19,7.19,0,1,1,7.19-7.19A7.19,7.19,0,0,1,42.62,44.48Z" transform="translate(-5.5 -7.84)" style="fill:#eef7f2"/><path d="M71.85,36.78a18.55,18.55,0,0,0-8.84-5,18.65,18.65,0,0,0,5.09-8.65.71.71,0,0,0-.51-.89,18.76,18.76,0,0,0-10,.07,18.74,18.74,0,0,0,.11-10.11.72.72,0,0,0-.89-.52,18.9,18.9,0,0,0-8.69,5.14,18.78,18.78,0,0,0-5-8.78.71.71,0,0,0-.52-.22.65.65,0,0,0-.51.22,18.57,18.57,0,0,0-5,8.79,18.82,18.82,0,0,0-8.7-5.16.72.72,0,0,0-.89.51,18.86,18.86,0,0,0,.07,10,18.73,18.73,0,0,0-10-.08.66.66,0,0,0-.45.33.72.72,0,0,0-.07.56,18.79,18.79,0,0,0,5.19,8.76,18.75,18.75,0,0,0-8.89,5,.72.72,0,0,0,0,1,19.21,19.21,0,0,0,5.78,4C13.26,44.21,8.49,49,5.57,55.67a.7.7,0,0,0,.23.87,26.73,26.73,0,0,0,15.87,5.55,22.63,22.63,0,0,0,5.66-.71c.07.32.12.66.2,1a.7.7,0,0,0,.89.51,18.83,18.83,0,0,0,8.64-5.06A18.84,18.84,0,0,0,42,66.42a.7.7,0,0,0,.51.22.69.69,0,0,0,.52-.22,18.84,18.84,0,0,0,2.23-2.69,22.47,22.47,0,0,0,3.58,2.61,23.55,23.55,0,0,0,11.86,3.13,28.8,28.8,0,0,0,10.45-2,.72.72,0,0,0,.46-.79A27.13,27.13,0,0,0,65.45,52.8c-.11,0,1.26-.26,2.07-.47a.72.72,0,0,0,.51-.89A18.75,18.75,0,0,0,63,42.79a18.91,18.91,0,0,0,8.87-5A.66.66,0,0,0,71.85,36.78ZM66.51,23.49a17.22,17.22,0,0,1-5.27,8,20.21,20.21,0,0,0-2.81-.22,18.37,18.37,0,0,0-4.13.49,11.21,11.21,0,0,0-1-1.75A19.27,19.27,0,0,0,57,24.08,17,17,0,0,1,66.51,23.49ZM56.44,61.26a17.35,17.35,0,0,1-9.92-8A17.83,17.83,0,0,1,45.09,50a12.84,12.84,0,0,0,7.28-4.21,17.14,17.14,0,0,1,4.07,15.46ZM42.62,48.8A11.5,11.5,0,1,1,54.13,37.31,11.5,11.5,0,0,1,42.62,48.8ZM28.31,50.34a17.11,17.11,0,0,1-9.69.64,17.24,17.24,0,0,1,5.18-7.89,19.75,19.75,0,0,0,3,.25,19,19,0,0,0,4.15-.48,11.52,11.52,0,0,0,1,1.77A18.74,18.74,0,0,0,29.46,48,19.32,19.32,0,0,0,28.31,50.34Zm28.14-37a17.34,17.34,0,0,1-1.93,12.56,16.64,16.64,0,0,1-2.15,2.9,12.89,12.89,0,0,0-7.28-4.21,17.89,17.89,0,0,1,1.43-3.31A17.53,17.53,0,0,1,56.45,13.33ZM42.62,9.62a17.29,17.29,0,0,1,4.28,8.59,19.5,19.5,0,0,0-1.63,2.34,19.59,19.59,0,0,0-1.65,3.83,7.43,7.43,0,0,0-2,0,19.58,19.58,0,0,0-3.25-6.16A17.22,17.22,0,0,1,42.62,9.62ZM28.8,13.31a17.41,17.41,0,0,1,9.91,8,16.64,16.64,0,0,1,1.43,3.31,12.92,12.92,0,0,0-7.27,4.2A17.17,17.17,0,0,1,28.8,13.31ZM18.67,23.37A17.17,17.17,0,0,1,28.2,24a18.76,18.76,0,0,0,1.25,2.65A19.62,19.62,0,0,0,31.94,30a12.74,12.74,0,0,0-1,1.76,19.18,19.18,0,0,0-6.88-.28A17.3,17.3,0,0,1,18.67,23.37Zm8.13,9.31a17.08,17.08,0,0,1,3.58.41,12.76,12.76,0,0,0-.72,4.22,13.2,13.2,0,0,0,.7,4.19,17,17,0,0,1-3.59.4,17.42,17.42,0,0,1-11.84-4.61A17.32,17.32,0,0,1,26.8,32.68Zm-19.64,23c3-6.56,8-11.17,14.06-13.21.28.09.56.14.84.21a18.7,18.7,0,0,0-5,8.6.71.71,0,0,0,.07.55.68.68,0,0,0,.44.34,18.91,18.91,0,0,0,10.18-.11A18.89,18.89,0,0,0,27.1,60C20.49,61.65,13.44,60.16,7.16,55.73Zm21.62,5.53a17.45,17.45,0,0,1,1.94-12.57,17.93,17.93,0,0,1,2.14-2.88A12.92,12.92,0,0,0,40.14,50,17.25,17.25,0,0,1,28.78,61.26ZM42.5,64.85a17.16,17.16,0,0,1-4.23-8.39A18.24,18.24,0,0,0,40,54a18.46,18.46,0,0,0,1.65-3.83c.33,0,.67.06,1,.06s.67,0,1-.06A19.51,19.51,0,0,0,45.26,54a21.36,21.36,0,0,0,1.51,2.2A17.27,17.27,0,0,1,42.5,64.85Zm27.56,1.4c-7.28,2.68-14.55,2.26-20.52-1.19A21.43,21.43,0,0,1,46,62.47a18.83,18.83,0,0,0,2-4.86,18.66,18.66,0,0,0,8.79,5.24.71.71,0,0,0,.82-.33.75.75,0,0,0,.07-.18,18.92,18.92,0,0,0-.09-10.1,18.2,18.2,0,0,0,6,.68A25.39,25.39,0,0,1,70.06,66.25ZM66.44,51.11A17.26,17.26,0,0,1,57,50.55,17.43,17.43,0,0,0,55.77,48a19.09,19.09,0,0,0-2.48-3.33,13.67,13.67,0,0,0,1-1.75,18.29,18.29,0,0,0,4.13.47,17.9,17.9,0,0,0,2.75-.22A17.25,17.25,0,0,1,66.44,51.11Zm-8-9.21a18.13,18.13,0,0,1-3.55-.4,12.78,12.78,0,0,0,.71-4.21,13,13,0,0,0-.72-4.21,16.91,16.91,0,0,1,3.57-.4,17.36,17.36,0,0,1,11.85,4.61A17.37,17.37,0,0,1,58.42,41.9Z" transform="translate(-5.5 -7.84)" style="fill:#eef7f2"/></svg>