<svg xmlns="http://www.w3.org/2000/svg" viewBox="0 0 83.35 61.03"><path d="M34.2,43.69a2,2,0,0,0-1.21.39,18.07,18.07,0,0,0-7.1,14.32V73.33a1.89,1.89,0,0,0,1.9,1.89H61.73a1.89,1.89,0,0,0,1.9-1.89V58.4a18.05,18.05,0,0,0-7.11-14.32A1.89,1.89,0,0,0,54.4,44a19.08,19.08,0,0,1-19.3,0,1.79,1.79,0,0,0-.9-.27Zm.16,4.18a22.86,22.86,0,0,0,20.79,0A14.17,14.17,0,0,1,59.84,58.4v13H29.68v-13A14.2,14.2,0,0,1,34.36,47.87Z" transform="translate(-3.08 -14.2)" style="fill:#47c6e2;fill-rule:evenodd"/><path d="M44.76,14.2A13.33,13.33,0,1,0,58.09,27.52,13.36,13.36,0,0,0,44.76,14.2Zm0,3.79a9.54,9.54,0,1,1-9.55,9.53A9.5,9.5,0,0,1,44.76,18Z" transform="translate(-3.08 -14.2)" style="fill:#47c6e2;fill-rule:evenodd"/><path d="M63.18,41a1.88,1.88,0,0,0-1.21.38,14.39,14.39,0,0,0-1.64,1.45A1.9,1.9,0,0,0,63,45.5l0,0,.32-.31a18.2,18.2,0,0,0,16,0,10.57,10.57,0,0,1,3.3,7.67V62.5H67.54a1.9,1.9,0,0,0-.07,3.79H84.54a1.89,1.89,0,0,0,1.89-1.89V52.81a14.42,14.42,0,0,0-5.68-11.46,1.91,1.91,0,0,0-2.11-.12,14.44,14.44,0,0,1-14.56,0A2,2,0,0,0,63.18,41Z" transform="translate(-3.08 -14.2)" style="fill:#47c6e2;fill-rule:evenodd"/><path d="M71.36,18.05A10.78,10.78,0,1,0,82.13,28.83,10.81,10.81,0,0,0,71.36,18.05Zm0,3.79a7,7,0,1,1-7,7A7,7,0,0,1,71.36,21.84Z" transform="translate(-3.08 -14.2)" style="fill:#47c6e2;fill-rule:evenodd"/><path d="M10,41a1.85,1.85,0,0,0-1.21.39A14.41,14.41,0,0,0,3.08,52.81V64.4A1.9,1.9,0,0,0,5,66.29H22A1.9,1.9,0,0,0,22,62.5H6.87V52.81a10.56,10.56,0,0,1,3.29-7.67,18.2,18.2,0,0,0,16,0l.32.31a1.89,1.89,0,0,0,2.75-2.6l0-.05a15.29,15.29,0,0,0-1.64-1.45,1.91,1.91,0,0,0-2.11-.12,14.44,14.44,0,0,1-14.56,0A1.88,1.88,0,0,0,10,41Z" transform="translate(-3.08 -14.2)" style="fill:#47c6e2;fill-rule:evenodd"/><path d="M18.15,18.05A10.78,10.78,0,1,0,28.93,28.83,10.8,10.8,0,0,0,18.15,18.05Zm0,3.79a7,7,0,1,1-7,7A7,7,0,0,1,18.15,21.84Z" transform="translate(-3.08 -14.2)" style="fill:#47c6e2;fill-rule:evenodd"/></svg>