<svg xmlns="http://www.w3.org/2000/svg" viewBox="0 0 158.57 73.77"><path d="M-76.91,44.25a.44.44,0,0,0-.5-.1.55.55,0,0,0-.4.6h0a7.74,7.74,0,0,0,.7,1.6,13,13,0,0,0,1,1.5.76.76,0,0,0,.5.2.67.67,0,0,0,.4-.7,7.74,7.74,0,0,0-.7-1.6,6.53,6.53,0,0,0-1-1.5Z" transform="translate(77.81 -6.45)" style="fill:#34D399"/><path d="M80.52,62.26a6.22,6.22,0,0,0-2.91-3.83,6.29,6.29,0,0,0-4.86-.6L56.41,63.48a7.59,7.59,0,0,0,.26-1.07,6.29,6.29,0,0,0-5.35-7.08l-1.72-.24a31.41,31.41,0,0,0,1.27-10.24,55,55,0,0,1,5-8.33,20,20,0,0,0,4.84.63h0c3.13,0,5.51-.87,7.07-2.58A21.06,21.06,0,0,0,72.9,23.31a1.19,1.19,0,0,0-.75-1.21,21.15,21.15,0,0,0-7-1.3c-3.73,0-6.66,1.21-8.71,3.59-3,3.52-2.49,7.79-1.92,10a49.66,49.66,0,0,0-4.08,6.22,31.65,31.65,0,0,0-4.22-11l.08-.06a1.2,1.2,0,0,0,.26-.29c.24-.4,5.89-9.84-.06-15.88C40.82,7.65,31,6.45,23.83,6.45a57.8,57.8,0,0,0-7.5.45,1.19,1.19,0,0,0-.85.56,1.21,1.21,0,0,0-.11,1c.24.7,6,17.09,14,23.38a9.52,9.52,0,0,0,6,2.06A17.47,17.47,0,0,0,44.23,31a29.15,29.15,0,0,1,4.24,13.57s0,.07,0,.1a29.23,29.23,0,0,1-1.26,10.08L31.09,52.47c-3.73-.53-7.76,1.48-10.45,5.14H8.17a1.19,1.19,0,1,0,0,2.38H21.26a1.2,1.2,0,0,0,1-.53c1.78-2.66,5.09-5.12,8.5-4.63L51,57.69a3.89,3.89,0,0,1,1.49,7.18,3.84,3.84,0,0,1-2.59.56L34.74,63.29a1.19,1.19,0,1,0-.34,2.36l15.15,2.14a6.36,6.36,0,0,0,.87.06A6.22,6.22,0,0,0,53.58,67l19.87-6.86a3.86,3.86,0,0,1,4.77,2.76c.58,2.12-.5,3.92-2.83,4.81L45.91,77.52a9.15,9.15,0,0,1-4.26.13L20.31,73.11a1,1,0,0,0-.24,0H8.17a1.19,1.19,0,0,0,0,2.38H19.94L41.1,80a10,10,0,0,0,2.37.26,10.84,10.84,0,0,0,3.19-.44l29.53-9.86C79.73,68.58,81.42,65.56,80.52,62.26ZM58.2,25.94a8.66,8.66,0,0,1,6.91-2.76,19.13,19.13,0,0,1,5.28.83A18.92,18.92,0,0,1,66,33c-1.09,1.2-2.88,1.81-5.3,1.81h0a17.46,17.46,0,0,1-3.17-.32,16.1,16.1,0,0,1,3.63-3.18,1.19,1.19,0,1,0-1.23-2,17.18,17.18,0,0,0-3.43,2.83A7.88,7.88,0,0,1,58.2,25.94ZM30.87,30C24.69,25.13,19.72,13.19,18.14,9.09c1.28-.12,3.3-.26,5.69-.26,6.76,0,15.87,1.08,20.94,6.23,4,4,1,10.58,0,12.45a30.73,30.73,0,0,0-9.22-8.45,1.19,1.19,0,0,0-1.23,2A28.47,28.47,0,0,1,42.92,29a15.06,15.06,0,0,1-7.48,2.51A7.22,7.22,0,0,1,30.87,30Z" transform="translate(77.81 -6.45)" style="fill:#34D399"/></svg>