<svg xmlns="http://www.w3.org/2000/svg" viewBox="0 0 79.47 70.46"><path d="M83.49,15.71a1.4,1.4,0,0,0-2.21.08l-2.87,3.56.6-3.19A1.86,1.86,0,0,0,77.82,14,1.58,1.58,0,0,0,76,15.37L75,20.7,71.87,15a1.43,1.43,0,0,0-2.16-.56A2,2,0,0,0,69.23,17l3.09,5.7-.95-.25a3,3,0,0,0-2.68.67,4.13,4.13,0,0,0-1.38,2.74L67,29.12c-.11-3.61-2.54-6.52-5.77-6.45a4.94,4.94,0,0,0-1.58.32,6,6,0,0,0-11.14-.37c0-.07,0-.15-.06-.21a3.62,3.62,0,0,0-2.2-1.9L44.31,20l4.85-6a2.08,2.08,0,0,0-.06-2.6,1.4,1.4,0,0,0-2.21.08L44,15l.6-3.19a1.86,1.86,0,0,0-1.19-2.19,1.58,1.58,0,0,0-1.86,1.4l-1,5.33-3.1-5.7a1.42,1.42,0,0,0-2.15-.56,2,2,0,0,0-.48,2.54l3.09,5.69-1-.24a3,3,0,0,0-2.68.67,4.14,4.14,0,0,0-1.39,2.76l-.31,3.21a2,2,0,0,0-.06.35l-.7,7a13.89,13.89,0,0,0-2.56-2.22c.16-1.94-1.66-3.83-5.45-5.64a1.25,1.25,0,0,0-.25-.09l-.28-4.73a1.71,1.71,0,0,0-1.66-1.7l-3.94.29a1.49,1.49,0,0,0-1.08.62A2.07,2.07,0,0,0,16.24,20l.25,4.42c-3.78,1.79-5.43,3.72-4.92,5.71a1.45,1.45,0,0,0,.11.29,15.32,15.32,0,0,0-5.94,9.12,1.75,1.75,0,0,0-1.23,1.76v7.35a1.71,1.71,0,0,0,1.56,1.83H7.53a9.22,9.22,0,0,0,.71,1.12L10.8,63.8l3.13,14.88a1.64,1.64,0,0,0,1.52,1.4H71.73a1.65,1.65,0,0,0,1.52-1.4L76.37,63.8l2.8-13.31h1.94a1.71,1.71,0,0,0,1.56-1.83V41.31a1.72,1.72,0,0,0-1.56-1.84h-.69l1.08-3.88a2.19,2.19,0,0,0,.12-.33l1.47-5.32a4.55,4.55,0,0,0-.26-3.19,3.41,3.41,0,0,0-2.19-1.9l-2-.52,4.86-6A2.06,2.06,0,0,0,83.49,15.71ZM65,38.47a7.07,7.07,0,0,0,.71-.74,2.46,2.46,0,0,0,.22-.39q.12-.24.24-.45l-.26,2.58H64.82ZM46.53,26.72h.2l.31.05a2.24,2.24,0,0,1,1.08.54,1.36,1.36,0,0,0,1.54.22,1.79,1.79,0,0,0,1-1.45,3.56,3.56,0,0,1,3.24-3.37,3.42,3.42,0,0,1,3.36,3.22,1.78,1.78,0,0,0,1,1.41A1.38,1.38,0,0,0,59.77,27a2.27,2.27,0,0,1,1.51-.66,2.81,2.81,0,0,1,2.57,2.87,3.62,3.62,0,0,1-.17,1.15,2.11,2.11,0,0,0,0,1.38,4,4,0,0,1,.22,1.32,4.4,4.4,0,0,1-.3,1.73l0,.06a4.56,4.56,0,0,0-.25.5,3.92,3.92,0,0,1-.47.55h0a1.53,1.53,0,0,1-.71.23,1.42,1.42,0,0,0-1.93.51,3.58,3.58,0,0,1-2.8,1.5,3.25,3.25,0,0,1-.74,0,3.47,3.47,0,0,1-2.13-1.28,1.4,1.4,0,0,0-1.26-.62,1.53,1.53,0,0,0-1.2.8,2.6,2.6,0,0,1-1.1,1,1.92,1.92,0,0,1-.92.28,3,3,0,0,1-.52-.06A2.41,2.41,0,0,1,48,37.18c-.66-1-2-.62-2.72-1l-.3-.21a2.28,2.28,0,0,0-.22-.22,1.85,1.85,0,0,1-.58-1.21,1.51,1.51,0,0,1,.3-.92,2.09,2.09,0,0,0,.08-2.22,3.53,3.53,0,0,1-.47-1.73A2.77,2.77,0,0,1,46.53,26.72Zm-10.21-5,4.36,1.12.26.1,3.08.85c-.07,0-.12.11-.18.15a5.86,5.86,0,0,0-.86.72l-.24.24a6.75,6.75,0,0,0-.84,1.22c0,.1-.09.21-.13.31a9,9,0,0,0-.42,1.06,1.65,1.65,0,0,0-1.41,1.39,1.87,1.87,0,0,0,1.17,2.2,7.53,7.53,0,0,0,.35,1.28,5.4,5.4,0,0,0-.4,2.23,4.64,4.64,0,0,0,.13,1.09,5.62,5.62,0,0,0,.53,1.42,3.07,3.07,0,0,0,.17.31,2.85,2.85,0,0,0,.16.3l-.5,1.76h-6c0-.26-.12-.51-.18-.77s-.07-.31-.11-.47-.12-.43-.19-.64l1.36.36a1.24,1.24,0,0,0,.33,0,1.64,1.64,0,0,0,1.53-1.44,1.86,1.86,0,0,0-1.19-2.19l-2.23-.59.61-6.21,1.12.29a1.33,1.33,0,0,0,.34.05,1.65,1.65,0,0,0,1.52-1.44,1.85,1.85,0,0,0-1.18-2.19l-1.41-.37L36,22l-1.56-.21ZM31.44,37.24l.16.34a9.92,9.92,0,0,1,.68,1.89H32a15.92,15.92,0,0,0-.82-2.73C31.23,36.91,31.35,37.07,31.44,37.24ZM17.93,27.71h.21a1.44,1.44,0,0,0,1.14-.59,2.05,2.05,0,0,0,.42-1.37l-.24-4.15.82-.07.27,4.54a1.71,1.71,0,0,0,1.52,1.71l.83,0c.4.2.8.42,1.18.65l-.3-.07-.38-.1L22.53,28a1.38,1.38,0,0,0-1.32.26,1.93,1.93,0,0,0-.66,1.37c0,.64-.11,1.31-.2,1.94-.07-.62-.12-1.29-.15-1.92a1.94,1.94,0,0,0-.62-1.38,1.38,1.38,0,0,0-.83-.33s-.07,0-.11,0a1,1,0,0,0-.35.05l-.2.05-.14,0-.63.14-.09,0-.47.09C17.13,28.1,17.53,27.89,17.93,27.71Zm-2.25,4.46c.53-.05,1.06-.13,1.54-.22.39,3.9,1.43,5.89,3.11,5.93h.28c.77-.08,2.22-.71,2.86-5.8a16.34,16.34,0,0,0,1.68.28c.16,0,.3,0,.47,0a7.55,7.55,0,0,0,.94,0,8.94,8.94,0,0,1,.84.51,1.47,1.47,0,0,0-.44.31,2.08,2.08,0,0,0-.1,2.6,10.72,10.72,0,0,1,1.85,3.64H9A12,12,0,0,1,15.68,32.17ZM20.14,76.4H16.68L14.32,65.19h5.82Zm0-14.88H13.55l-2.32-11h8.91ZM29.52,76.4H23.27V65.19h6.25Zm0-25.58v10.7H23.27v-11h6.25ZM42,76.4H32.65V65.19H42Zm0-14.88H32.65V55.2l.49-4.71H42ZM54.53,76.4H45.15V65.19h9.38Zm0-14.88H45.15v-11h9.38ZM63.91,76.4H57.66V65.19h6.25Zm0-14.88H57.66v-11h6.25ZM70.5,76.4H67V65.19h5.82Zm3.13-14.88H67v-11H76Zm5.92-14.7h-.89a1.36,1.36,0,0,0-.68-.18H9.2a1.17,1.17,0,0,0-.6.18h-1V43.14H79.55Zm.56-18.26a.29.29,0,0,1,0,.21,0,0,0,0,1,0,0l-1,3.74-2.9-.75a1.57,1.57,0,0,0-1.86,1.39,1.87,1.87,0,0,0,1.19,2.2l2.57.67-1,3.42h-4.7a1.63,1.63,0,0,0-1-.81l-2.23-.57.62-6.21,1.11.29a1.29,1.29,0,0,0,.33,0,1.64,1.64,0,0,0,1.53-1.44,1.86,1.86,0,0,0-1.19-2.19l-1.41-.37.19-1.93.3-.27Z" transform="translate(-4.51 -9.62)" style="fill:#FB7185"/></svg>