<svg xmlns="http://www.w3.org/2000/svg" viewBox="0 0 62.86 67.12"><path d="M58.54,46.15V49a2.43,2.43,0,0,1-2.43,2.41H53.3L50.05,72H28.57L25.31,51.41h-2A2.42,2.42,0,0,1,20.88,49h0V46.15a2.43,2.43,0,0,1,2.42-2.42H56.1A2.44,2.44,0,0,1,58.54,46.15Zm-13.1-2.42c5.09-20.62,25.1-17.91,25.1-17.91-26.79-14-38.17,17.91-38.17,17.91m6.14-10.9S36.24,21.2,19.92,21.7c-5.25.15-8.63,4-10.19,8.46,0,0,16.34-8.79,23.48,11.48m8.7-12.59c-4.37-18.35-18-14.66-18-14.66s6,4.46,6.57,9.17m18.2.69c-1.66-9.28,6-14.54,6-14.54C41.81,11,39.31,22,39.31,22M43,15.31c-2.86-2.65-2-8.42-2-8.42s-5.88,3.28-6.28,9.72m-8,14.79C13.93,31,15.92,41.86,15.92,41.86a7.26,7.26,0,0,1,6.62-4.42c6.6,0,8.51,6.32,8.51,6.32m20.4,0s4.15-8.84,13.77-5c0,0-5.09-8.36-15-5.06M25.31,51.41h18.9m2.88,0h2.26" transform="translate(-8.7 -5.86)" style="fill:none;stroke:#f1f9f8;stroke-linecap:round;stroke-linejoin:round;stroke-width:2.049999952316284px"/></svg>