<svg xmlns="http://www.w3.org/2000/svg" viewBox="0 0 50.61 68.62"><path d="M55.89,28a15.13,15.13,0,1,0-28.47-9.68,11.42,11.42,0,0,0-11.16,11.4,11.2,11.2,0,0,0,.79,4.17,11.24,11.24,0,0,0-2.15,6.63,11.4,11.4,0,0,0,18.65,8.8c3.37,9.84-.06,16.29-2.14,20.19-1.17,2.18-2,3.75-.75,4.72,2.46,1.88,6.42-.43,7.69-1.27a8.29,8.29,0,0,0,5.24,2.1,4.31,4.31,0,0,0,2.84-.93,2.15,2.15,0,0,0,.25-3C43.35,66.42,43,63.42,43,57.19A9.88,9.88,0,0,1,48,48.83a11.4,11.4,0,0,0,17.56-9.59A11.47,11.47,0,0,0,55.89,28ZM41.83,57.19c0,6.36.37,9.66,3.88,14.58a1,1,0,0,1-.07,1.46c-1.1,1-4.16,1-6.84-1.47l-.36-.33-.4.29c-1.23.9-4.84,3-6.66,1.55-.46-.35.22-1.61,1.07-3.21,2.22-4.14,5.9-11,2-21.64l.11-.11,3.25,3.4.07-5.88a11.29,11.29,0,0,0,3.53,0l0,4.59,4.37-3.31a12.3,12.3,0,0,0,1.06,1A10.94,10.94,0,0,0,41.83,57.19ZM35.38,47.4a11.09,11.09,0,0,0,1.15-1.86l.21.05,0,3.19Zm7.27-1.85A13.6,13.6,0,0,0,44.27,45a11.3,11.3,0,0,0,.82,1.22L42.67,48Zm11.47,3.9a10.17,10.17,0,0,1-9.07-5.54l-.28-.52-.52.27a10.15,10.15,0,0,1-7.85.59l-.52-.17-.21.5a10.21,10.21,0,0,1-19.58-4.07,10.09,10.09,0,0,1,2.11-6.19l.21-.27-.14-.32a10.11,10.11,0,0,1-.82-4A10.22,10.22,0,0,1,27.66,19.5l.74,0,.09-.49a13.94,13.94,0,1,1,26,9.16L54,29l.91.07a10.21,10.21,0,0,1-.81,20.38Z" transform="translate(-14.9 -6.43)" style="fill:#eef7f3"/><path d="M26.22,35.23a3.43,3.43,0,1,0,3.43,3.43A3.43,3.43,0,0,0,26.22,35.23Zm0,5.66a2.24,2.24,0,1,1,2.24-2.23A2.23,2.23,0,0,1,26.22,40.89Z" transform="translate(-14.9 -6.43)" style="fill:#eef7f3"/><path d="M37.34,26.49a3.42,3.42,0,1,0,3.43,3.42A3.42,3.42,0,0,0,37.34,26.49Zm0,5.65a2.24,2.24,0,1,1,2.24-2.23A2.23,2.23,0,0,1,37.34,32.14Z" transform="translate(-14.9 -6.43)" style="fill:#eef7f3"/><path d="M55.94,35.23a3.43,3.43,0,1,0,3.42,3.43A3.44,3.44,0,0,0,55.94,35.23Zm0,5.66a2.24,2.24,0,1,1,2.23-2.23A2.23,2.23,0,0,1,55.94,40.89Z" transform="translate(-14.9 -6.43)" style="fill:#eef7f3"/><path d="M44,34.2a3.43,3.43,0,1,0,3.42,3.43A3.44,3.44,0,0,0,44,34.2Zm0,5.66a2.24,2.24,0,1,1,2.23-2.23A2.23,2.23,0,0,1,44,39.86Z" transform="translate(-14.9 -6.43)" style="fill:#eef7f3"/><path d="M48.77,20.83a3.42,3.42,0,1,0,3.43,3.42A3.42,3.42,0,0,0,48.77,20.83Zm0,5.66A2.24,2.24,0,1,1,51,24.25,2.24,2.24,0,0,1,48.77,26.49Z" transform="translate(-14.9 -6.43)" style="fill:#eef7f3"/><path d="M38.78,18.59A3.43,3.43,0,1,0,35.36,22,3.42,3.42,0,0,0,38.78,18.59Zm-5.66,0a2.24,2.24,0,1,1,2.24,2.24A2.23,2.23,0,0,1,33.12,18.59Z" transform="translate(-14.9 -6.43)" style="fill:#eef7f3"/><path d="M45.94,17.51a3.43,3.43,0,1,0-3.42-3.42A3.43,3.43,0,0,0,45.94,17.51Zm0-5.66a2.24,2.24,0,1,1-2.23,2.24A2.24,2.24,0,0,1,45.94,11.85Z" transform="translate(-14.9 -6.43)" style="fill:#eef7f3"/><path d="M26.22,23.66a3.42,3.42,0,1,0,3.43,3.42A3.42,3.42,0,0,0,26.22,23.66Zm0,5.65a2.23,2.23,0,1,1,2.24-2.23A2.23,2.23,0,0,1,26.22,29.31Z" transform="translate(-14.9 -6.43)" style="fill:#eef7f3"/></svg>