<svg xmlns="http://www.w3.org/2000/svg" viewBox="0 0 63.48 63.68"><path d="M28.87,31.5l6,6a19.26,19.26,0,0,0-5.77-.86,19.47,19.47,0,0,0-14.71,6.83,1.38,1.38,0,0,0-.07,1.65,18,18,0,0,0,14.45,7.09,22.26,22.26,0,0,0,14.71-6L53,55.68a19.15,19.15,0,0,0-5.76-.86,19.45,19.45,0,0,0-14.71,6.83,1.38,1.38,0,0,0-.07,1.65A18.19,18.19,0,0,0,47,70.39a22.24,22.24,0,0,0,14.71-6l7.75,7.76a1.3,1.3,0,0,0,1.86,0,1.29,1.29,0,0,0,0-1.86l-7.69-7.82a21.41,21.41,0,0,0,6-16,17.65,17.65,0,0,0-7-13.12,1.31,1.31,0,0,0-1.66.06,19.22,19.22,0,0,0-6.82,13.92A20.4,20.4,0,0,0,55,53.89l-9.61-9.6a21.45,21.45,0,0,0,6-16,17.65,17.65,0,0,0-7-13.12,1.3,1.3,0,0,0-1.66.07A19.18,19.18,0,0,0,35.9,29.11a20.2,20.2,0,0,0,.86,6.63l-6-6c-.2-12-8.29-20.87-18.89-20.87A14.54,14.54,0,0,0,9.39,9a1.22,1.22,0,0,0-1.12,1.19,18.71,18.71,0,0,0,5,14.64A21.23,21.23,0,0,0,28.87,31.5Zm-.06,18a15.19,15.19,0,0,1-11.6-5.17,16.3,16.3,0,0,1,11.93-5.1,18.93,18.93,0,0,1,12.52,5A19.3,19.3,0,0,1,28.81,49.52ZM47,67.74a15.28,15.28,0,0,1-11.59-5.17,16.28,16.28,0,0,1,11.92-5.1,19,19,0,0,1,12.53,5A19.48,19.48,0,0,1,47,67.74ZM61.8,36.07A15,15,0,0,1,67,46.61a19.32,19.32,0,0,1-5.17,14,18.6,18.6,0,0,1-5-13.19A16.2,16.2,0,0,1,61.8,36.07ZM43.65,17.91a15.13,15.13,0,0,1,5.17,10.54,19.35,19.35,0,0,1-5.17,14,18.54,18.54,0,0,1-5-13.18A16.19,16.19,0,0,1,43.65,17.91ZM11.84,11.49c8.88,0,15.71,7.35,16.24,17.36a18.76,18.76,0,0,1-12.86-5.77,16.5,16.5,0,0,1-4.37-11.53A5.49,5.49,0,0,1,11.84,11.49Z" transform="translate(-8.19 -8.84)" style="fill:#eef7f3"/></svg>