<svg xmlns="http://www.w3.org/2000/svg" viewBox="0 0 77.72 75.7"><path d="M80,58.9h-.1a4.39,4.39,0,0,1-3.1-1.3,34.35,34.35,0,0,0-11.3-7.5,9.68,9.68,0,0,0-4.8-.6,3.79,3.79,0,0,1-1.5,0l-1.1-.3c-2.8,4.2-6.2,8.9-9.8,13.6L46,66.2l-1.7,1.7-.2-.1c-.5.6-1.1,1.3-1.7,1.9a29.46,29.46,0,0,0,12,2.6c1.2,0,2.4-.1,3.6-.2a12,12,0,0,0,5.7-2.4,9.3,9.3,0,0,1,3.9-1.8A14.56,14.56,0,0,0,74.2,65a32,32,0,0,0,2.7-2.5,4.23,4.23,0,0,1,3-1.2H80a1.2,1.2,0,0,0,0-2.4Zm-5.3,2.5c-.6.5-1.2,1.1-1.8,1.5a11.81,11.81,0,0,1-5.3,2.5,13.2,13.2,0,0,0-5.3,2.3,9.08,9.08,0,0,1-4.5,1.9c-1.1.1-2.2.2-3.3.2s-2.1-.1-3.1-.2a2.23,2.23,0,0,1-1.9-2.5,3.18,3.18,0,0,1,.3-.9h0a15.06,15.06,0,0,1,4.7-4.7,5.24,5.24,0,0,1,1,1.1,8,8,0,0,1,.8,1.6,3.53,3.53,0,0,0,1.2,1.7.44.44,0,0,0,.5-.1h0a.25.25,0,0,0-.1-.4h0A4.19,4.19,0,0,1,57,64a13.36,13.36,0,0,0-.7-1.8,4.7,4.7,0,0,0-.9-1.2,8.79,8.79,0,0,0,1-.6l.6-.3c1-.1,2-.3,2.9-.3a2.63,2.63,0,0,1,2.1.6,6,6,0,0,1,2,2.7c.1.2.3.3.4.2h0c.2-.1.3-.2.2-.4a5.45,5.45,0,0,0-1.2-2.4c-.2-.2-.4-.5-.6-.7.8,0,1.7.1,2.5.1l4.7.6c.2,0,.3-.1.4-.3s-.1-.3-.3-.4c-1.6-.2-3.1-.5-4.7-.7-1-.1-2-.2-2.9-.2a4.35,4.35,0,0,0,.8-1.5,7.77,7.77,0,0,0,.4-3,.3.3,0,1,0-.6,0,7.71,7.71,0,0,1-.7,2.6h0a3.3,3.3,0,0,1-2.7,1.8c-.6,0-1.2.1-1.8.1a9.26,9.26,0,0,1,3.8-5.3,4.79,4.79,0,0,1,4.9-.3,31.47,31.47,0,0,1,7.7,5.4,1.86,1.86,0,0,1,.4,2.7c-.1-.1-.1,0,0,0Z" transform="translate(-3.49 -4.1)" style="fill:#EAB308"/><path d="M56.6,44.9a8.68,8.68,0,0,1-3.9-1l-.7-.5a.54.54,0,0,0-.8.2h0a.52.52,0,0,0,.2.8h0l.7.4A8.92,8.92,0,0,0,56.6,46a.65.65,0,0,0,.6-.6A.56.56,0,0,0,56.6,44.9Z" transform="translate(-3.49 -4.1)" style="fill:#EAB308"/><path d="M81.1,32.5a5.25,5.25,0,0,0-2.3-3A17,17,0,0,0,61,30c4.2-11,3.4-21.4-2.8-25a6.66,6.66,0,0,0-10,5.8A7.22,7.22,0,0,0,49,14a4.88,4.88,0,0,0-3.4,6,5.25,5.25,0,0,0,2.3,3c6.7,3.9,9.1,6.2,8.1,11a24.43,24.43,0,0,0-2.4-1,7.21,7.21,0,0,0-8.7,3.6C39.4,47,32.6,63.8,30.1,75.9a3.23,3.23,0,0,0,3.2,3.9,3.1,3.1,0,0,0,2.2-.9c9-8.2,19.8-22.7,26.1-32.6A7.21,7.21,0,0,0,60.3,37a10.63,10.63,0,0,0-1.1-.9c5.1-2.8,11.2-.1,14.6,2a5.13,5.13,0,0,0,2.4.7,4.87,4.87,0,0,0,1.2-.1,4.69,4.69,0,0,0,3-2.3,4.76,4.76,0,0,0,.7-2.3,2.88,2.88,0,0,0,0-1.6Zm-32-11.7A2.09,2.09,0,0,1,48,19.3a2.25,2.25,0,0,1,.2-1.8,1.92,1.92,0,0,1,1.5-1.1,2.19,2.19,0,0,1,1.9.3A12.34,12.34,0,0,1,58,28.6c-1.5-3.2-4.7-5.4-8.9-7.8ZM59.6,44.7h0C57.5,48,54.9,51.9,52,55.8h-.6a6.28,6.28,0,0,1-3.3-.6.74.74,0,0,0-.9.1v.1a.52.52,0,0,0,.2.8h0a8.8,8.8,0,0,0,1.5.5,1.4,1.4,0,0,1,1,1.7c0,.2-.1.3-.2.5-2.6,3.5-5.4,6.9-8.2,10.1a5.17,5.17,0,0,1-3.2-1.1l-.6-.5a.57.57,0,1,0-.9.7l.1.1.6.5a3.77,3.77,0,0,0,1.5.9,1.08,1.08,0,0,1,.7,1.4c-.1.2-.1.3-.3.4-1.9,2-3.7,3.9-5.5,5.5a.78.78,0,0,1-1.1,0,1,1,0,0,1-.2-.7,138.89,138.89,0,0,1,5.8-19,1,1,0,0,1,1.1-.5,1.38,1.38,0,0,1,.4.3,6.77,6.77,0,0,0,2.4,2c.1,0,.2.1.3.1a.55.55,0,0,0,.5-.3.63.63,0,0,0-.3-.8h0c-1.2-.5-2.4-2.4-2.9-3.6l-.1-.4c1.1-2.7,2.2-5.4,3.3-7.9a1.29,1.29,0,0,1,1.7-.6c.1.1.2.1.4.2.3.3.7.5,1,.8l.9.5a.37.37,0,0,0,.3.1.55.55,0,0,0,.5-.3.52.52,0,0,0-.2-.8h0l-.9-.5A5.09,5.09,0,0,1,44.7,43s1.7-3.7,2.6-5.2a4.72,4.72,0,0,1,5.8-2.3,18.89,18.89,0,0,1,2.5,1.1c-.4.7-.7,1.3-.7,1.3a1.17,1.17,0,0,0,.5,1.6c.2.1.4.1.6.2s.7.1,1.4.2a3.5,3.5,0,0,1,2.9,4c-.4.1-.5.4-.7.8ZM60,24.5a14.43,14.43,0,0,0-7.3-10A4.24,4.24,0,1,1,57,7.2h0c4.3,2.5,5.2,9.6,3.1,17.8a.9.9,0,0,0-.1-.5ZM78.5,35A2.55,2.55,0,0,1,77,36.2a1.94,1.94,0,0,1-1.8-.3c-4.9-3-9.5-4.1-13.4-3.4a14.58,14.58,0,0,1,15.9-.8,2.39,2.39,0,0,1,.8,3.3Z" transform="translate(-3.49 -4.1)" style="fill:#EAB308"/><path d="M28.3,46.8a6.46,6.46,0,0,1-5.9-.1c-.1,0-.1-.1-.2-.1a.55.55,0,0,0-.8.3h0a.54.54,0,0,0,.2.8h0c.1,0,.1.1.2.1a4.92,4.92,0,0,1,2.7,4.1v.6a.65.65,0,0,0,.6.6h.2a.66.66,0,0,0,.4-.5c.1-2.4,1.1-3.8,3.1-4.5a.67.67,0,0,0,.3-.8.82.82,0,0,0-.8-.5Z" transform="translate(-3.49 -4.1)" style="fill:#EAB308"/><path d="M40.5,44.7a8.5,8.5,0,0,0-6.9-6.1,7.22,7.22,0,0,1-2-.9,4.87,4.87,0,0,0-4.4-.4,5,5,0,0,0-1.9,1.3,10.81,10.81,0,0,0-12.4,3.1,2.29,2.29,0,0,1-1.7.8,3.19,3.19,0,0,0-1.4.3,5,5,0,0,0-3,5.5,8.52,8.52,0,0,0-3.3,6.9,7.54,7.54,0,0,0,1.2,4.1,8.53,8.53,0,0,0,9.3,4l.6-.2A19.65,19.65,0,0,1,23,72.9c.9,2.3,4.9,2,8.1.7.3-.1.6-.3.9-.4l.9-3.3a8.67,8.67,0,0,1-2.7,1.4c-2.8,1.1-4.7.9-5,.6a22.33,22.33,0,0,0-6-8.5,1.22,1.22,0,0,1,1.4-2c.9.5,1.8,1,2.7,1.6a1.1,1.1,0,0,0,1.1.1c.1,0,.2-.1.3-.2a1.24,1.24,0,0,0,.4-1.4l-.2-.5a1.19,1.19,0,0,1,.7-1.5h0a1.19,1.19,0,0,1,1.5.7l.2.5a1.3,1.3,0,0,0,1.2.8.37.37,0,0,0,.3-.1,1.07,1.07,0,0,0,.7-.9,10.55,10.55,0,0,1,.5-1.9,1.39,1.39,0,0,1,1.7-.9,1.29,1.29,0,0,1,.9,1.3,20.64,20.64,0,0,0,.9,7.8c.8-2.6,1.7-5.3,2.7-8,.3-1.2.7-2.5,1.1-3.7.2-.1.3-.2.4-.2,1-2.6,2-5.1,3.1-7.5a12.41,12.41,0,0,0-.3-2.7Zm-5.7,7.9a6.15,6.15,0,0,1-3,.5,5.39,5.39,0,0,0-4.5,1.6,1,1,0,0,1-.5.4,4,4,0,0,1-5.8-.5,5.56,5.56,0,0,1-.9-1.7l-.3-.9a1.24,1.24,0,0,0-2.4.6c0,.1,0,.1.1.2A6.25,6.25,0,0,1,12,61.2a6,6,0,0,1-5.2-2.5,6.08,6.08,0,0,1,1.3-8.5c.2-.1.3-.2.5-.3a1.38,1.38,0,0,0,.5-1.6,2.43,2.43,0,0,1,1.4-3.2c.2-.1.5-.1.7-.2a5.08,5.08,0,0,0,3.4-1.7A8.14,8.14,0,0,1,18,40.8a8.62,8.62,0,0,1,10.1,3,1.24,1.24,0,0,0,1.4.4.9.9,0,0,0,.6-.6,1.5,1.5,0,0,0-.1-1.3c-.1-.1-.1-.1-.1-.2a1.15,1.15,0,0,1,.3-1.6.92.92,0,0,1,1-.1h.1a6.36,6.36,0,0,0,1.8.6,8.08,8.08,0,0,1,2.2.7,6,6,0,0,1,2.3,8.2A6.05,6.05,0,0,1,34.8,52.6Z" transform="translate(-3.49 -4.1)" style="fill:#EAB308"/><path d="M25.9,64.8c-.1-.1-.3-.2-.4-.1s-.4.3-.3.5h0l.6,1.5a14.63,14.63,0,0,0,.9,1.3.44.44,0,0,0,.5.1.42.42,0,0,0,.3-.6,6.11,6.11,0,0,0-.7-1.4c-.3-.4-.6-.9-.9-1.3Z" transform="translate(-3.49 -4.1)" style="fill:#EAB308"/><path d="M29.2,63a.46.46,0,0,0-.4.5,14.16,14.16,0,0,0,.4,2,14.58,14.58,0,0,0,.7,1.9.54.54,0,0,0,.4.3c.3,0,.4-.2.4-.5h0a14.16,14.16,0,0,0-.4-2,14.58,14.58,0,0,0-.7-1.9C29.5,63,29.4,62.9,29.2,63Z" transform="translate(-3.49 -4.1)" style="fill:#EAB308"/><path d="M46.4,30.6A7.33,7.33,0,0,1,45,26.9a10.15,10.15,0,0,0-1.6-4.5,35.08,35.08,0,0,0-9.7-9.5,4.39,4.39,0,0,1-1.9-2.7V10a1.24,1.24,0,0,0-1.5-.8,1.29,1.29,0,0,0-.9,1.3v.1a4.54,4.54,0,0,1-.6,3.2A20.16,20.16,0,0,0,27,17a17.07,17.07,0,0,0-1.5,7.1,9.78,9.78,0,0,1-.9,4.1,11.48,11.48,0,0,0-1.1,6,19.68,19.68,0,0,0,.5,3.5,13.32,13.32,0,0,0,.5,1.9,6.94,6.94,0,0,1,1.3.5,4.49,4.49,0,0,1,1.1-1.3,10.46,10.46,0,0,1-.4-1.7c-.2-1.1-.4-2.1-.5-3.2a10,10,0,0,1,.9-4.8,13.88,13.88,0,0,0,1.2-5.7,12.32,12.32,0,0,1,1.4-5.7,12.81,12.81,0,0,1,1.1-2,1.88,1.88,0,0,1,2.5-.6h.1a32,32,0,0,1,8.4,8.4,8.09,8.09,0,0,1,1.2,3.7,10.19,10.19,0,0,0,1.9,4.7A7.89,7.89,0,0,1,46,35.2a10.87,10.87,0,0,1,.1,1.8c0-.1.1-.1.1-.2a6.59,6.59,0,0,1,2.1-2.3,20.07,20.07,0,0,0-1.9-3.9Z" transform="translate(-3.49 -4.1)" style="fill:#EAB308"/><path d="M43.7,36.4c-.1-.1-.3-.1-.5.1h0a2.18,2.18,0,0,1-.8.5c-.3.1-.7.2-1.1.3a5.7,5.7,0,0,0-2.2,1.1,7.69,7.69,0,0,0-1.8,1.8L37,38.1c0-.2-.1-.4-.1-.6a4.19,4.19,0,0,1,.5-2.5,5,5,0,0,1,1.4-1.5,17.39,17.39,0,0,1,1.8-1.1,4.36,4.36,0,0,0,1.7-1.6.37.37,0,0,0-.2-.5c-.2-.1-.4,0-.4.2h0a4.43,4.43,0,0,1-1.5,1.2,12.81,12.81,0,0,0-2,1.1,8.52,8.52,0,0,0-1.7,1.6c0-.3-.1-.6-.1-.9-.1-1.3-.3-2.5-.5-3.8a3.08,3.08,0,0,1,1.2-3.1h0a6.77,6.77,0,0,1,2.4-1.2c.1,0,.2-.2.2-.3s-.2-.3-.4-.2h0a9.38,9.38,0,0,0-2.8,1A6.89,6.89,0,0,0,35.2,27c-.2-.9-.5-1.9-.8-2.8-.5-1.5-1.1-3-1.7-4.5-.1-.2-.2-.2-.4-.2s-.3.2-.2.4h0c.5,1.5,1.1,3,1.5,4.5a21.72,21.72,0,0,1,.7,2.4c-.3-.2-.5-.3-.8-.5a5.83,5.83,0,0,0-2.6-.6c-.2,0-.4.1-.4.3s.1.4.3.4a6.41,6.41,0,0,1,3,1.4,3,3,0,0,1,1,2,23.08,23.08,0,0,1,.3,3.7l.1,1.4a5.38,5.38,0,0,0-2-1,6.28,6.28,0,0,0-1.9-.3,2.46,2.46,0,0,1-1.5-.5h0a.35.35,0,0,0-.5.5,3.38,3.38,0,0,0,1.9.9,11.63,11.63,0,0,1,1.8.4,4.06,4.06,0,0,1,2.6,3.3v.2c.1.9.2,1.7.3,2.6a8,8,0,0,1,1.7,1.5,4.56,4.56,0,0,1,1.8-3.2h0a7.24,7.24,0,0,1,1.9-1.1A4.77,4.77,0,0,0,43.5,37h0a.25.25,0,0,0-.1-.4h0Z" transform="translate(-3.49 -4.1)" style="fill:#EAB308"/></svg>