<svg id="Layer_1" data-name="Layer 1" xmlns="http://www.w3.org/2000/svg" viewBox="0 0 127.66 20.85"><g style="isolation:isolate"><path d="M7.45,6.38H20a1,1,0,0,1,.49.17,1.26,1.26,0,0,1,.37.39,2.29,2.29,0,0,1,.24.55,2.64,2.64,0,0,1,.08.62,2,2,0,0,1-.25,1.11,1.36,1.36,0,0,1-.64.53,2.65,2.65,0,0,1-.88.16H9.58v4.88H17l.47,0h.22a1.16,1.16,0,0,1,.51.15,1.58,1.58,0,0,1,.41.37,1.73,1.73,0,0,1,.28.54,2.07,2.07,0,0,1,.1.66,2.78,2.78,0,0,1-.11.81,1.74,1.74,0,0,1-.3.56,1.1,1.1,0,0,1-.42.33,1.29,1.29,0,0,1-.5.11H9.58V26a.78.78,0,0,1-.19.56,1.13,1.13,0,0,1-.48.32,2.34,2.34,0,0,1-.69.14c-.26,0-.51,0-.77,0s-.57,0-.82,0a3.21,3.21,0,0,1-.69-.15,1.07,1.07,0,0,1-.47-.32A.81.81,0,0,1,5.3,26V8.11a1.28,1.28,0,0,1,0-.22,2.08,2.08,0,0,1,.16-.48,1.41,1.41,0,0,1,.37-.49,1.86,1.86,0,0,1,.63-.38A2.54,2.54,0,0,1,7.45,6.38Z" transform="translate(-5.3 -6.21)" style="fill:#039669"/></g><g style="isolation:isolate"><path d="M37.75,22.8H28l-.74,2.13a5,5,0,0,1-.55,1.17,2.2,2.2,0,0,1-.64.62,2.15,2.15,0,0,1-.79.25,9.91,9.91,0,0,1-1,0,2.26,2.26,0,0,1-.79-.14A1.14,1.14,0,0,1,23,26.4a1.69,1.69,0,0,1-.22-.87A3.77,3.77,0,0,1,23,24.2l5.6-15.33a4.85,4.85,0,0,1,.83-1.57,3.07,3.07,0,0,1,1-.78,3.2,3.2,0,0,1,1.08-.28c.38,0,.75,0,1.13,0h.51c.38,0,.75,0,1.13,0a3.25,3.25,0,0,1,1.09.28,2.94,2.94,0,0,1,1,.78,4.85,4.85,0,0,1,.84,1.57L42.8,24.2a3.77,3.77,0,0,1,.27,1.33,1.69,1.69,0,0,1-.22.87,1.06,1.06,0,0,1-.57.47,2.22,2.22,0,0,1-.79.14c-.37,0-.71,0-1,0a2.14,2.14,0,0,1-.8-.25,2.08,2.08,0,0,1-.64-.62,4.6,4.6,0,0,1-.54-1.17ZM29.2,19.53h7.41l-3.26-9.29a1.61,1.61,0,0,0-.15-.34A.2.2,0,0,0,33,9.77H32.8a.21.21,0,0,0-.19.13,1.67,1.67,0,0,0-.14.34Z" transform="translate(-5.3 -6.21)" style="fill:#039669"/><path d="M56.08,10H52.59V26a.82.82,0,0,1-.19.56,1.21,1.21,0,0,1-.49.33,3.26,3.26,0,0,1-.68.14l-.77,0c-.3,0-.57,0-.83,0a3,3,0,0,1-.68-.15,1.1,1.1,0,0,1-.48-.32A.86.86,0,0,1,48.3,26V8.05c0-.08,0-.13,0-.16a3.85,3.85,0,0,1,.16-.48,1.41,1.41,0,0,1,.37-.49,1.91,1.91,0,0,1,.64-.38,2.51,2.51,0,0,1,1-.16h5.65c.53,0,1.12,0,1.79,0a12.17,12.17,0,0,1,2,.27,10.83,10.83,0,0,1,2,.66A6.1,6.1,0,0,1,63.7,8.49a5.64,5.64,0,0,1,1.24,1.82,6.55,6.55,0,0,1,.47,2.59V13a6.63,6.63,0,0,1-.35,2.24,5.46,5.46,0,0,1-.93,1.66A5.85,5.85,0,0,1,62.77,18a9,9,0,0,1-1.63.76l4,6.61a.86.86,0,0,1,.14.56.75.75,0,0,1-.26.43,1.79,1.79,0,0,1-.53.3,4.72,4.72,0,0,1-.67.19,5.58,5.58,0,0,1-.68.1l-.57,0a3.25,3.25,0,0,1-1.09-.19,1.51,1.51,0,0,1-.82-.66l-4-6.69H54.56a.94.94,0,0,1-.9-.52,2.55,2.55,0,0,1-.28-1.26,5,5,0,0,1,0-.69,1.59,1.59,0,0,1,.18-.57,1,1,0,0,1,.38-.38,1.1,1.1,0,0,1,.61-.14h1.79a12.39,12.39,0,0,0,2.38-.21,3.8,3.8,0,0,0,1.44-.55,2,2,0,0,0,.71-.89,3.55,3.55,0,0,0,.22-1.19v-.14a4.09,4.09,0,0,0-.19-1.27,1.85,1.85,0,0,0-.71-.94,4.17,4.17,0,0,0-1.49-.58A13.07,13.07,0,0,0,56.23,10h-.15Z" transform="translate(-5.3 -6.21)" style="fill:#039669"/><path d="M84.45,27H84c-.2,0-.45-.05-.75-.1a6.61,6.61,0,0,1-.94-.25,4.07,4.07,0,0,1-1-.47,3.86,3.86,0,0,1-.84-.78A3.35,3.35,0,0,1,80,24.23L76.25,10.06a.45.45,0,0,0-.12-.23.27.27,0,0,0-.19-.06.26.26,0,0,0-.3.29l-.91,15.52a1.34,1.34,0,0,1-.41.78,2,2,0,0,1-.72.43,3.06,3.06,0,0,1-.87.18c-.31,0-.6,0-.86,0a1.32,1.32,0,0,1-1.21-.49,2,2,0,0,1-.22-1.32L71.41,9A2.92,2.92,0,0,1,72,7.42,2.79,2.79,0,0,1,73,6.6a4.06,4.06,0,0,1,1.29-.31c.45,0,.87,0,1.26,0H76a9,9,0,0,1,1.33.11,4.61,4.61,0,0,1,1.33.43,3.26,3.26,0,0,1,1.08.83A2.53,2.53,0,0,1,80.35,9l3.8,14.32c0,.14.07.21.14.23l.16,0,.17,0c.06,0,.11-.09.14-.23L88.56,9a2.6,2.6,0,0,1,.57-1.34,3.47,3.47,0,0,1,1.08-.83,4.71,4.71,0,0,1,1.33-.43,9.16,9.16,0,0,1,1.33-.11h1.28a5.16,5.16,0,0,1,.87.1,3.75,3.75,0,0,1,.85.25,2.67,2.67,0,0,1,.75.48,2.34,2.34,0,0,1,.57.76A3.65,3.65,0,0,1,97.49,9l1,16.22a2,2,0,0,1-.22,1.32A1.3,1.3,0,0,1,97,27c-.27,0-.55,0-.86,0a3.2,3.2,0,0,1-.88-.18,2.19,2.19,0,0,1-.72-.43,1.33,1.33,0,0,1-.4-.78l-.91-15.52A.26.26,0,0,0,93,9.77a.32.32,0,0,0-.2.06.39.39,0,0,0-.13.23L88.92,24.23a3.34,3.34,0,0,1-.55,1.17,3.86,3.86,0,0,1-.84.78,4.13,4.13,0,0,1-1,.47,6.28,6.28,0,0,1-.94.25c-.29.05-.54.08-.76.1Z" transform="translate(-5.3 -6.21)" style="fill:#039669"/><path d="M109.34,26a.79.79,0,0,1-.19.56,1.16,1.16,0,0,1-.48.32A2.72,2.72,0,0,1,108,27l-.76,0a7.21,7.21,0,0,1-.83,0,2.72,2.72,0,0,1-.69-.14,1.15,1.15,0,0,1-.47-.33.85.85,0,0,1-.17-.54V7.49a1,1,0,0,1,.16-.57,1.32,1.32,0,0,1,.47-.4,2.66,2.66,0,0,1,.69-.23,3.74,3.74,0,0,1,.84-.08,5.31,5.31,0,0,1,.82,0,1.94,1.94,0,0,1,.68.2,1.16,1.16,0,0,1,.46.39,1.15,1.15,0,0,1,.16.64Z" transform="translate(-5.3 -6.21)" style="fill:#039669"/><path d="M119.86,11.67a1.66,1.66,0,0,0,.52,1.27,4.32,4.32,0,0,0,1.39.84,12.16,12.16,0,0,0,2,.59l2.3.54q1.17.3,2.34.69a9,9,0,0,1,2.11,1,5.94,5.94,0,0,1,1.6,1.56,4.94,4.94,0,0,1,.84,2.27,5.15,5.15,0,0,1,0,1.35,4.5,4.5,0,0,1-.48,1.45,6,6,0,0,1-1,1.41,6.35,6.35,0,0,1-1.73,1.19,10.83,10.83,0,0,1-2.56.84,17.77,17.77,0,0,1-3.48.31,29.46,29.46,0,0,1-3.11-.15,12.09,12.09,0,0,1-2.46-.47,5.38,5.38,0,0,1-1.73-.86,2.46,2.46,0,0,1-.88-1.27,1.12,1.12,0,0,1,0-.75,1.1,1.1,0,0,1,.39-.51,1.52,1.52,0,0,1,.59-.27,1.9,1.9,0,0,1,.62,0,7,7,0,0,1,1.26.24l1.38.34c.49.12,1,.22,1.62.31a13.07,13.07,0,0,0,2,.16,10.13,10.13,0,0,0,2.24-.2,5.76,5.76,0,0,0,1.65-.59,2.86,2.86,0,0,0,1-.91,2.08,2.08,0,0,0,.34-1.17,1.45,1.45,0,0,0-.55-1.16,4.83,4.83,0,0,0-1.47-.81,18.23,18.23,0,0,0-2.08-.6c-.77-.17-1.57-.36-2.38-.56s-1.61-.43-2.39-.69a9.65,9.65,0,0,1-2.1-1,5.08,5.08,0,0,1-1.51-1.4,3.49,3.49,0,0,1-.62-2,6,6,0,0,1,.4-2.32,5.39,5.39,0,0,1,1.33-2,7,7,0,0,1,2.28-1.45,9.43,9.43,0,0,1,3.29-.64l1.14,0c.53,0,1.13,0,1.8.07s1.34.13,2,.25a8.25,8.25,0,0,1,1.94.54,4.39,4.39,0,0,1,1.44.94,2,2,0,0,1,.56,1.44,2.54,2.54,0,0,1-.05.49.77.77,0,0,1-.22.38,1.09,1.09,0,0,1-.47.23,3,3,0,0,1-.78,0c-.39,0-.86-.08-1.41-.16L127,10.22c-.62-.09-1.26-.16-1.93-.23a18.46,18.46,0,0,0-2-.1,7.53,7.53,0,0,0-1.18.09,4.38,4.38,0,0,0-1,.31,2,2,0,0,0-.73.55A1.27,1.27,0,0,0,119.86,11.67Z" transform="translate(-5.3 -6.21)" style="fill:#039669"/></g></svg>