<?xml version="1.0" encoding="utf-8"?>
<!-- Generator: Adobe Illustrator 25.2.1, SVG Export Plug-In . SVG Version: 6.00 Build 0)  -->
<svg version="1.1" id="Layer_1" xmlns="http://www.w3.org/2000/svg" xmlns:xlink="http://www.w3.org/1999/xlink" x="0px" y="0px"
	 viewBox="0 0 67.7 93.4" style="enable-background:new 0 0 67.7 93.4;" xml:space="preserve">
<style type="text/css">
	.st0{fill:#10B981;}
</style>
<path class="st0" d="M26.9,43.3c0.2,0.4,0.4,0.8,0.5,1.3c0.7,9.4-0.1,10.3-9.6,10.3c-4.8,0-4.8,0-4.8,4.9c0,2.5-0.1,5,0,7.5
	c0.3,8.9,5.2,15.2,13.9,17.5c5.2,1.4,10.7,1.1,15.7-0.9c7.2-3,11-8.4,11.5-16.1c0.2-3.2,0-6.5,0.1-9.7c0-2.2-0.9-3.2-3.2-3.2
	c-2.6,0-5.2-0.1-7.8-0.4c-2.4-0.2-3.5-1.6-3.4-4c0.1-2.1,0-4.2,0-7c6.6,5.5,13.9,3.3,20.8,3.8c0.9,0.1,2.5,1.2,2.5,1.8
	c0.1,7.1,0.4,14.2-0.1,21.3C62.3,80.9,55.6,87.2,46,91c-12.4,4.9-27.4,1.9-35.7-7.2C6.3,79.6,4,73.9,4,67.9c0-6,0-12.1-0.1-18.2
	c0-2,0.7-2.8,2.7-2.8s4.2-0.2,6.2-0.1C17.9,47.2,22.8,47.4,26.9,43.3z"/>
<path class="st0" d="M35.8,26.7l-1.6-11.5h-1.1c-0.5,3.8-1.1,7.5-1.7,11.8c-5.4-3.4-8.5-7.5-8.4-13.3c-0.2-5.6,3-10.8,8-13.2
	c2-0.8,4.3-0.6,6.2,0.4C46.8,7,46.6,20,37.2,26.2C36.8,26.4,36.3,26.6,35.8,26.7z"/>
<path class="st0" d="M46.5,39.4l12.6-12.8l-0.7-0.9L42.1,36.4c-0.1-1.4-0.1-2.7,0-4.1c1.9-7.7,8.6-12.9,17-13.3h0.9
	c7.3-0.1,9.2,2.6,6.6,9.7C64,36,55.1,40.9,46.5,39.4z"/>
<path class="st0" d="M24.4,35.8L9.2,25.7l-0.9,0.9l12.2,12.5c-10.5,3-22.3-7.3-20.3-17.5c0.3-1.1,1.2-2,2.3-2.4
	c8.6-1.6,18.1,2,21.5,10.2c0.8,1.8,0.9,4,1.3,5.9L24.4,35.8z"/>
<path class="st0" d="M45.8,61.6c2.3,8.3,0.2,13.5-6.5,16.3C45.4,73.9,46.3,68,45.8,61.6z"/>
</svg>
