<?xml version="1.0" standalone="no"?>
<!DOCTYPE svg PUBLIC "-//W3C//DTD SVG 20010904//EN"
 "http://www.w3.org/TR/2001/REC-SVG-20010904/DTD/svg10.dtd">
<svg version="1.0" xmlns="http://www.w3.org/2000/svg"
 width="400.000000pt" height="400.000000pt" viewBox="0 0 400.000000 400.000000"
 preserveAspectRatio="xMidYMid meet">
<metadata>
Created by potrace 1.14, written by Peter Selinger 2001-2017
</metadata>
<g transform="translate(0.000000,400.000000) scale(0.100000,-0.100000)"
fill="#000000" stroke="none">
<path d="M1861 3730 c-137 -70 -245 -209 -276 -357 -41 -191 8 -363 139 -494
60 -60 176 -147 176 -132 0 4 14 104 32 222 31 207 42 242 68 215 4 -5 20 -92
35 -194 33 -228 33 -230 54 -230 29 0 108 58 166 123 201 221 193 540 -18 750
-91 90 -147 119 -241 124 -64 4 -77 2 -135 -27z"/>
<path d="M805 3040 c-96 -17 -137 -99 -120 -238 4 -31 18 -85 31 -120 93 -248
383 -436 646 -419 134 9 140 -4 -122 255 -203 200 -232 232 -221 246 8 9 17
16 22 16 4 0 134 -81 288 -180 154 -99 286 -183 293 -185 7 -3 19 -1 27 4 13
8 13 22 -2 107 -24 133 -68 216 -166 314 -132 131 -300 198 -511 205 -63 2
-137 0 -165 -5z"/>
<path d="M2910 3040 c-274 -32 -515 -222 -584 -459 -14 -48 -23 -191 -12 -191
2 0 145 90 317 200 286 184 314 200 328 185 15 -15 -4 -36 -229 -255 -134
-132 -241 -242 -238 -246 15 -15 224 -5 298 14 200 53 365 174 449 332 36 67
71 193 71 254 0 136 -145 196 -400 166z"/>
<path d="M1690 2098 c-47 -39 -143 -84 -212 -98 -34 -7 -169 -12 -328 -13
-266 -2 -270 -2 -292 -25 l-23 -23 4 -437 c4 -503 6 -518 91 -687 139 -278
417 -472 791 -552 115 -24 398 -24 519 0 115 23 227 60 338 113 299 140 475
344 534 620 20 91 22 130 22 499 1 220 -2 411 -6 425 -4 14 -22 34 -40 45 -30
18 -53 20 -283 21 -194 0 -265 4 -316 17 -80 19 -171 59 -215 92 -18 14 -36
25 -39 25 -3 0 -5 -76 -3 -169 4 -238 2 -236 290 -252 106 -6 203 -15 216 -20
48 -19 55 -63 49 -314 -4 -190 -9 -243 -25 -304 -36 -127 -76 -197 -171 -292
-71 -72 -102 -94 -181 -133 -138 -67 -265 -98 -415 -98 -347 -2 -616 143 -736
397 -58 123 -69 196 -69 470 l0 236 25 24 c23 23 31 25 132 25 147 0 277 15
321 37 25 12 44 32 60 63 19 39 22 59 22 170 -1 79 -5 133 -13 147 l-12 21
-35 -30z"/>
<path d="M2458 1295 c-10 -208 -66 -326 -208 -439 -35 -28 -34 -27 27 4 77 40
146 111 181 188 22 47 27 74 29 157 2 60 -2 122 -10 155 l-13 55 -6 -120z"/>
</g>
</svg>
